<svg width="76" height="95" viewBox="0 0 76 95" fill="none" xmlns="http://www.w3.org/2000/svg">
<g filter="url(#filter0_d_5_1645)">
<g clip-path="url(#clip0_5_1645)">
<path d="M11.2488 40.7766C28.0216 39.0238 44.9382 41.7144 61.6698 39.29C62.4515 39.1753 62.1182 37.9918 61.3407 38.1064C44.7284 40.5104 27.9064 37.8075 11.2488 39.548C10.4672 39.6299 10.459 40.8585 11.2488 40.7766Z" fill="#727272"/>
<path d="M11.0843 39.5727C9.44692 40.0806 9.65261 42.2101 10.5207 43.3404C11.9441 45.1915 15.1407 45.2324 17.2265 45.0358C18.0122 44.9621 18.0163 43.7335 17.2265 43.8073C15.8771 43.9342 14.4783 43.9219 13.166 43.537C12.483 43.3363 11.7631 43.0537 11.3723 42.4149C11.1707 42.0831 10.784 40.9528 11.4134 40.7604C12.1704 40.5228 11.8454 39.3352 11.0843 39.5727Z" fill="#727272"/>
<path d="M58.7818 39.6751C59.6498 39.6218 60.4891 39.4744 61.353 39.3597C62.723 39.1755 63.4265 39.544 63.6651 40.9774C63.8626 42.1691 63.1097 42.5172 62.0483 42.853C61.5464 43.0127 61.0198 43.111 60.5014 43.2134C59.115 43.4837 57.7245 43.6188 56.3134 43.668C55.5235 43.6966 55.5194 44.9252 56.3134 44.8966C58.7201 44.8106 65.4794 44.7205 65.2161 40.9323C65.1502 39.9863 64.2328 38.6799 63.373 38.254C62.0894 37.6152 60.09 38.3646 58.7777 38.4465C57.9919 38.4956 57.9878 39.7242 58.7818 39.6751Z" fill="#727272"/>
<path d="M13.0549 44.7736C12.8862 47.3741 9.92414 48.8443 8.3526 50.6298C7.1184 52.0345 6.1475 53.6521 5.44401 55.3762C3.93007 59.0702 3.64209 63.2105 4.4114 67.1051C5.99528 75.095 12.0593 81.6884 19.6331 84.5182C20.3778 84.7967 20.6987 83.6091 19.9623 83.3347C12.0963 80.3943 5.98294 73.0269 5.30002 64.5783C4.97502 60.5649 5.82661 56.3878 8.07696 53.0092C9.94471 50.208 14.0546 48.4143 14.2891 44.7736C14.3384 43.9873 13.1042 43.9873 13.0549 44.7736Z" fill="#727272"/>
<path d="M59.8226 44.2495C59.8226 47.4807 62.18 49.5079 64.5784 51.3139C66.6395 52.8619 68.2357 54.369 69.2519 56.7975C70.1364 58.9065 70.626 61.1835 70.737 63.4646C71.1402 71.8558 66.2446 79.645 58.7201 83.3103C58.0084 83.6584 58.6296 84.7191 59.3413 84.371C66.331 80.9678 71.2595 74.0509 71.9177 66.3026C72.251 62.3834 71.5681 58.067 69.5687 54.6311C67.3677 50.8429 61.0568 49.1065 61.0527 44.2495C61.0568 43.4591 59.8226 43.4591 59.8226 44.2495Z" fill="#727272"/>
<path d="M19.267 83.6172C18.4689 85.3823 19.9005 86.9058 21.6778 86.9877C23.6072 87.0819 25.6436 86.6355 27.5772 86.5536C29.8193 86.4553 32.0615 86.4512 34.3036 86.4839C42.6714 86.6109 51.0351 87.2457 59.3659 86.1154C59.6498 86.0785 59.7938 85.7673 59.8185 85.5215C59.8843 84.8335 59.8267 84.3257 59.6251 83.6787C59.3906 82.9251 58.2017 83.2487 58.4362 84.0063C58.646 84.5018 58.6954 85.0096 58.5843 85.5215C58.7365 85.325 58.8846 85.1284 59.0368 84.9277C52.5408 85.8082 45.9873 85.5871 39.4543 85.3823C36.2865 85.284 33.1146 85.1939 29.9469 85.2472C28.4987 85.2717 27.0506 85.3291 25.6025 85.4274C24.8126 85.4806 24.0268 85.5543 23.2411 85.6321C22.661 85.6895 19.4439 86.185 20.3284 84.2274C20.6534 83.519 19.592 82.8965 19.267 83.6172Z" fill="#727272"/>
<path d="M11.0802 51.2237C6.05287 57.3789 5.66205 65.9708 10.1751 72.5233C10.3972 72.8468 10.9321 72.5396 10.7099 72.212C6.36142 65.9012 6.66174 57.6042 11.5204 51.6537C11.7631 51.3548 11.3311 50.9166 11.0802 51.2237Z" fill="#727272"/>
<path d="M11.4134 74.8043C11.8166 75.3858 12.2773 75.9223 12.7916 76.4096C13.0796 76.6799 13.5156 76.2499 13.2277 75.9755C12.7504 75.5251 12.3226 75.0336 11.9441 74.4971C11.7219 74.1736 11.1871 74.4767 11.4134 74.8043Z" fill="#727272"/>
<path d="M14.865 78.3387C15.2641 78.3387 15.2641 77.7244 14.865 77.7244C14.466 77.7244 14.466 78.3387 14.865 78.3387Z" fill="#727272"/>
<path d="M58.6296 44.2822C58.3128 45.4617 58.0413 46.6493 58.5062 47.8287C58.9381 48.9222 59.8144 49.9091 60.559 50.8142C62.3445 52.9765 65.9977 55.1593 66.1705 58.1734C66.1911 58.5666 66.8082 58.5707 66.7876 58.1734C66.6601 55.9169 64.9898 54.4713 63.4512 53.0052C62.4597 52.0592 61.5258 51.0558 60.6701 49.9829C60.0942 49.258 59.4442 48.4922 59.1109 47.6199C58.7036 46.5592 58.9381 45.5149 59.222 44.4501C59.3248 44.0652 58.7283 43.9014 58.6296 44.2822Z" fill="#727272"/>
<path d="M66.4379 59.5987C66.5243 60.385 66.6107 61.1713 66.6971 61.9576C66.7382 62.3467 67.3594 62.3508 67.3142 61.9576C67.2278 61.1713 67.1414 60.385 67.055 59.5987C67.0139 59.2097 66.3968 59.2056 66.4379 59.5987Z" fill="#727272"/>
<path d="M66.4955 63.5752C66.5408 63.8046 66.5037 64.0216 66.4174 64.2346C66.3556 64.3902 66.4873 64.5704 66.6313 64.6113C66.8082 64.6605 66.9481 64.5499 67.0098 64.3984C67.1373 64.0789 67.1538 63.7472 67.0879 63.4114C67.018 63.0264 66.4215 63.1903 66.4955 63.5752Z" fill="#727272"/>
<path d="M39.7423 59.0825C41.2151 56.2977 43.9879 54.4753 47.2091 54.635C51.0434 54.8234 55.0751 58.1447 52.3887 62.068C50.813 64.3654 47.9826 65.852 45.8968 67.6621C43.5806 69.6729 41.4619 71.8884 39.5078 74.2555C39.0059 74.8616 39.8739 75.7339 40.3799 75.1237C43.3585 71.5158 46.7278 68.4648 50.4304 65.6145C52.9029 63.7061 55.6387 60.8107 54.1371 57.4567C52.8947 54.6801 49.4636 53.3164 46.5715 53.3983C43.1651 53.4965 40.2442 55.495 38.6726 58.46C38.3065 59.1603 39.372 59.7828 39.7423 59.0825Z" fill="#727272"/>
<path d="M39.4502 58.1285C36.8131 55.1758 33.5219 52.133 29.2516 52.3541C26.0839 52.518 23.3563 54.9096 22.8996 58.0589C22.336 61.8961 25.2158 65.2625 28.0216 67.4862C31.4691 70.2177 36.6691 71.1637 39.2486 74.8659C39.697 75.5129 40.7667 74.8986 40.3141 74.2475C38.7056 71.9378 36.3647 70.7501 33.8799 69.5543C30.7203 68.035 27.606 66.1552 25.5737 63.223C23.3069 59.9591 23.6813 54.9669 28.075 53.7711C32.3741 52.604 35.9944 56.1095 38.5739 58.9967C39.1046 59.5905 39.9768 58.7182 39.4502 58.1285Z" fill="#727272"/>
</g>
<g clip-path="url(#clip1_5_1645)">
<path d="M35.4719 12.629C34.283 14.782 32.4688 16.507 30.1404 17.4C29.2313 17.7507 28.0342 17.7303 28.1535 16.4866C28.2275 15.7118 29.0667 15.039 29.6756 14.676C30.7123 14.0562 32.041 13.8523 33.1558 13.3711C33.8799 13.0571 33.2546 12.001 32.5347 12.315C30.5436 13.1754 28.3633 13.3793 27.232 15.4671C26.6273 16.5844 26.4298 18.1381 27.7915 18.7742C29.2683 19.4634 31.3005 18.3501 32.5264 17.5672C34.2295 16.4825 35.5665 15.0022 36.5332 13.2447C36.9199 12.5556 35.8545 11.9357 35.4719 12.629Z" fill="#46A358"/>
<path d="M32.8967 12.119C31.3992 12.2821 29.9142 12.2903 28.4291 12.013C27.8861 11.9111 27.3472 11.7724 26.8206 11.6052C26.3763 11.4747 25.9485 11.3157 25.5248 11.1241C24.8954 10.333 24.9571 9.89256 25.7181 9.7947C27.9478 8.09018 31.4321 9.88033 33.6207 10.7081C34.3653 10.9895 34.6861 9.80693 33.9498 9.52964C32.0451 8.80787 29.9553 7.72318 27.8614 7.95561C26.6602 8.0861 23.8916 8.60398 23.5707 10.1005C22.8302 13.5667 31.1072 13.5422 32.8967 13.3465C33.6783 13.2567 33.6865 12.0334 32.8967 12.119Z" fill="#46A358"/>
<path d="M34.353 9.54986C32.4812 8.07778 30.8192 5.78606 30.9097 3.30268C30.9509 2.1976 31.6584 1.72865 32.6828 2.22614C33.2463 2.49936 33.6372 3.19666 33.9457 3.72269C34.6615 4.95419 34.9618 6.36102 35.2251 7.7434C35.3732 8.5141 36.5621 8.18788 36.414 7.41717C36.019 5.35381 35.4554 3.20481 33.9169 1.66341C33.0078 0.75406 31.4939 -0.289855 30.4243 0.933483C27.9231 3.79202 31.1977 8.61604 33.4808 10.4144C34.0979 10.8996 34.9782 10.0392 34.353 9.54986Z" fill="#46A358"/>
<path d="M36.3852 7.75588C36.6567 5.79038 37.5206 2.05104 39.7996 1.41491C41.9182 0.827707 41.7084 4.20412 41.116 5.32143C40.5195 6.4469 39.3471 7.50305 38.4955 8.44502C37.969 9.02815 38.837 9.89672 39.3676 9.30951C40.5894 7.95569 42.416 6.40205 42.6792 4.49772C42.8849 3.02156 42.7738 0.791007 41.1325 0.13856C39.635 -0.456797 38.1541 0.897029 37.3025 1.96133C36.0478 3.52721 35.4637 5.46823 35.1922 7.4215C35.0852 8.20035 36.2741 8.53473 36.3852 7.75588Z" fill="#46A358"/>
<path d="M39.454 9.46471C40.8897 8.274 43.5554 7.4462 45.3079 8.51866C47.5787 9.91327 44.3617 10.7492 43.3004 10.8185C42.165 10.896 41.0296 10.8267 39.9024 10.6962C39.1167 10.6065 39.1208 11.8298 39.9024 11.9195C41.7454 12.1316 44.2342 12.4048 45.9497 11.4995C47.0151 10.9368 47.7803 9.57481 47.1262 8.42895C46.3939 7.14445 44.3329 6.83454 42.996 6.87124C41.3381 6.92017 39.8448 7.5563 38.586 8.60022C37.973 9.10587 38.8493 9.97036 39.454 9.46471Z" fill="#46A358"/>
<path d="M39.5857 11.8786C40.8568 12.3435 42.1198 13.0449 42.8438 14.2274C43.7488 15.7117 43.7694 18.4439 41.1366 17.9341C38.8205 17.4856 37.1462 15.0471 36.6731 12.9307C36.5003 12.1641 35.3115 12.4862 35.4842 13.2569C35.9038 15.1408 36.9529 16.8046 38.5243 17.9586C39.7585 18.8679 41.9264 19.9526 43.3786 18.921C44.8719 17.8607 44.8719 15.6669 44.1972 14.1581C43.3991 12.3802 41.7002 11.3485 39.923 10.6961C39.1661 10.4269 38.8452 11.6095 39.5857 11.8786Z" fill="#46A358"/>
<path d="M27.1045 15.2467C23.5008 17.3998 20.8433 19.7976 20.2139 24.1119C19.5269 28.7972 20.6253 33.6947 21.629 38.2577C21.7977 39.0284 22.9866 38.7022 22.8179 37.9315C21.9293 33.8945 21.0202 29.7107 21.2958 25.5554C21.5961 21.025 23.9657 18.5498 27.7215 16.307C28.4044 15.8992 27.7874 14.839 27.1045 15.2467Z" fill="#46A358"/>
<path d="M43.0083 13.8645C48.0477 14.2559 51.6143 18.2685 52.9678 22.8642C54.4405 27.8676 53.6178 33.1361 52.8156 38.1763C52.6922 38.947 53.881 39.2773 54.0045 38.5025C54.9424 32.5897 55.8844 26.3099 53.4614 20.6091C51.6267 16.2908 47.8173 13.0163 43.0083 12.6411C42.2144 12.58 42.2185 13.8033 43.0083 13.8645Z" fill="#46A358"/>
<path d="M28.3263 17.7833C22.2996 22.1302 24.2536 31.9577 25.4713 38.0662C25.6235 38.8369 26.8165 38.5107 26.6602 37.74C26.0225 34.543 25.4302 31.3093 25.4919 28.039C25.5536 24.8583 26.1583 20.8498 28.9474 18.8395C29.5851 18.3787 28.9721 17.3184 28.3263 17.7833Z" fill="#46A358"/>
<path d="M35.0934 13.8278C32.8514 17.2491 31.4034 21.074 30.8768 25.1273C30.6012 27.2519 30.5806 29.405 30.8357 31.5336C31.1113 33.8579 31.8641 36.0925 32.1438 38.4169C32.2343 39.1876 33.4726 39.1998 33.378 38.4169C32.8926 34.3595 31.642 30.6242 31.9711 26.473C32.3125 22.1628 33.7935 18.0605 36.163 14.4435C36.5908 13.7829 35.5254 13.1713 35.0934 13.8278Z" fill="#46A358"/>
<path d="M38.1088 17.6079C39.9477 20.6173 40.3344 24.0222 40.6552 27.4598C40.9885 31.036 41.26 34.6163 41.4903 38.2007C41.5397 38.9836 42.7738 38.9877 42.7245 38.2007C42.4653 34.1433 42.1732 30.0859 41.7536 26.0407C41.4245 22.8641 40.8692 19.7528 39.1743 16.988C38.7629 16.3193 37.6933 16.9309 38.1088 17.6079Z" fill="#46A358"/>
<path d="M43.7241 18.1789C48.3192 23.9082 48.4714 31.2237 48.3069 38.2049C48.2904 38.9919 49.5245 38.9919 49.541 38.2049C49.7138 30.8404 49.4176 23.3291 44.5962 17.3144C44.1026 16.6986 43.2346 17.5713 43.7241 18.1789Z" fill="#46A358"/>
<path d="M35.9532 19.6712C35.8833 19.9444 35.8174 20.2136 35.7475 20.4868C35.6529 20.8701 36.2453 21.0332 36.344 20.6499C36.4139 20.3767 36.4798 20.1075 36.5497 19.8343C36.6443 19.4551 36.0519 19.292 35.9532 19.6712Z" fill="#46A358"/>
<path d="M37.286 21.7957C37.286 22.1015 37.286 22.4074 37.286 22.7132C37.286 23.1087 37.9031 23.1087 37.9031 22.7132C37.9031 22.4074 37.9031 22.1015 37.9031 21.7957C37.9031 21.4001 37.286 21.4001 37.286 21.7957Z" fill="#46A358"/>
<path d="M34.3077 23.7328C34.2748 24.1732 34.2378 24.6177 34.2049 25.0581C34.1761 25.4496 34.7931 25.4496 34.8219 25.0581C34.8548 24.6177 34.8919 24.1732 34.9248 23.7328C34.9536 23.3413 34.3365 23.3413 34.3077 23.7328Z" fill="#46A358"/>
<path d="M38.3145 25.8733C38.3145 26.2811 38.3145 26.6889 38.3145 27.0967C38.3145 27.4922 38.9316 27.4922 38.9316 27.0967C38.9316 26.6889 38.9316 26.2811 38.9316 25.8733C38.9316 25.4778 38.3145 25.4778 38.3145 25.8733Z" fill="#46A358"/>
<path d="M35.9491 28.1162C35.9491 28.5566 35.9491 29.0011 35.9491 29.4415C35.9491 29.8371 36.5662 29.8371 36.5662 29.4415C36.5662 29.0011 36.5662 28.5566 36.5662 28.1162C36.5662 27.7207 35.9491 27.7207 35.9491 28.1162Z" fill="#46A358"/>
<path d="M34.6121 32.6018C34.6121 33.2135 34.6121 33.8252 34.6121 34.4368C34.6121 34.8324 35.2292 34.8324 35.2292 34.4368C35.2292 33.8252 35.2292 33.2135 35.2292 32.6018C35.2292 32.2063 34.6121 32.2063 34.6121 32.6018Z" fill="#46A358"/>
<path d="M32.7815 28.6014C32.8514 29.0092 32.9255 29.417 32.9954 29.8247C33.0612 30.2121 33.6577 30.049 33.5919 29.6616C33.522 29.2539 33.4479 28.8461 33.378 28.4383C33.308 28.055 32.7115 28.2181 32.7815 28.6014Z" fill="#46A358"/>
<path d="M37.5 34.6408C37.5329 35.0486 37.5699 35.4564 37.6028 35.8642C37.6357 36.2556 38.2528 36.2556 38.2199 35.8642C38.187 35.4564 38.15 35.0486 38.117 34.6408C38.0841 34.2494 37.4629 34.2453 37.5 34.6408Z" fill="#46A358"/>
<path d="M39.3471 30.0532C39.38 30.461 39.417 30.8687 39.4499 31.2765C39.4828 31.6639 40.0999 31.668 40.067 31.2765C40.0341 30.8687 39.997 30.461 39.9641 30.0532C39.9312 29.6617 39.3142 29.6576 39.3471 30.0532Z" fill="#46A358"/>
<path d="M46.431 16.4008C46.9082 16.8127 47.3854 17.2245 47.8626 17.6323C48.1629 17.8892 48.5989 17.457 48.2986 17.2001C47.8214 16.7882 47.3442 16.3764 46.867 15.9686C46.5708 15.7117 46.1307 16.1398 46.431 16.4008Z" fill="#46A358"/>
<path d="M46.6902 19.8058C46.9576 20.2829 47.2291 20.764 47.4965 21.2411C47.6898 21.5837 48.2246 21.2779 48.0312 20.9312C47.7638 20.4541 47.4923 19.973 47.2249 19.4959C47.0275 19.1533 46.4968 19.4632 46.6902 19.8058Z" fill="#46A358"/>
<path d="M49.1625 20.0055C49.467 20.4173 49.7714 20.8292 50.0758 21.2369C50.3062 21.5509 50.8451 21.2451 50.6106 20.927C50.3062 20.5152 50.0017 20.1033 49.6973 19.6955C49.4628 19.3856 48.928 19.6874 49.1625 20.0055Z" fill="#46A358"/>
<path d="M50.6846 25.3393C50.7875 26.0529 50.8944 26.7665 50.9973 27.4801C51.0549 27.8675 51.6473 27.7044 51.5938 27.317C51.4909 26.6034 51.384 25.8898 51.2811 25.1761C51.2194 24.7888 50.627 24.9559 50.6846 25.3393Z" fill="#46A358"/>
<path d="M48.6113 23.5083C48.7141 23.8468 48.817 24.1893 48.9198 24.5278C49.035 24.9029 49.6274 24.7439 49.5163 24.3647C49.4135 24.0262 49.3106 23.6837 49.2078 23.3452C49.0926 22.9701 48.4961 23.1291 48.6113 23.5083Z" fill="#46A358"/>
<path d="M51.8817 31.1746C51.927 31.6599 51.9188 32.1452 51.8406 32.6263C51.7789 33.0096 52.3713 33.1768 52.4371 32.7894C52.5235 32.2512 52.5523 31.717 52.5029 31.1746C52.4618 30.7873 51.8447 30.7832 51.8817 31.1746Z" fill="#46A358"/>
<path d="M50.4501 33.1116C50.4501 33.4868 50.4501 33.8578 50.4501 34.233C50.4501 34.6285 51.0672 34.6285 51.0672 34.233C51.0672 33.8578 51.0672 33.4868 51.0672 33.1116C51.0672 32.7161 50.4501 32.7161 50.4501 33.1116Z" fill="#46A358"/>
<path d="M51.0878 22.8928C51.2565 23.3006 51.4292 23.7084 51.5979 24.1162C51.6637 24.2711 51.8036 24.3771 51.9764 24.3282C52.1204 24.2915 52.2561 24.1039 52.1903 23.953C52.0216 23.5453 51.8488 23.1375 51.6802 22.7297C51.6144 22.5747 51.4745 22.4687 51.3017 22.5177C51.1577 22.5544 51.0261 22.7419 51.0878 22.8928Z" fill="#46A358"/>
<path d="M49.9359 29.9512C49.9359 30.1877 49.9359 30.4283 49.9359 30.6648C49.9359 31.0604 50.553 31.0604 50.553 30.6648C50.553 30.4283 50.553 30.1877 50.553 29.9512C50.553 29.5557 49.9359 29.5557 49.9359 29.9512Z" fill="#46A358"/>
<path d="M51.1701 36.7817C51.1536 37.0712 51.0837 37.3485 50.9767 37.6177C50.915 37.7726 51.0466 37.952 51.1906 37.9928C51.3675 38.0417 51.5074 37.9316 51.5691 37.7808C51.7007 37.4586 51.7666 37.1283 51.7871 36.7817C51.8118 36.3862 51.1947 36.3902 51.1701 36.7817Z" fill="#46A358"/>
<path d="M25.2903 18.8841C25.0805 19.1859 24.8707 19.4876 24.6567 19.7894C24.4305 20.1156 24.9653 20.4214 25.1915 20.0993C25.4013 19.7975 25.6111 19.4958 25.8251 19.194C26.0472 18.8678 25.5124 18.5619 25.2903 18.8841Z" fill="#46A358"/>
<path d="M23.5296 23.3453C23.4514 23.7164 23.3774 24.0874 23.2992 24.4626C23.2211 24.8459 23.8135 25.0131 23.8957 24.6257C23.9739 24.2546 24.0479 23.8836 24.1261 23.5084C24.2043 23.1251 23.6078 22.962 23.5296 23.3453Z" fill="#46A358"/>
<path d="M23.3321 21.1228C23.0071 21.551 22.7644 22.024 22.5999 22.5337C22.4765 22.9088 23.073 23.0679 23.1964 22.6968C23.3486 22.236 23.5748 21.8201 23.8669 21.4327C24.1055 21.1146 23.5666 20.8129 23.3321 21.1228Z" fill="#46A358"/>
<path d="M22.0774 25.1803C22.0034 25.69 21.9252 26.1957 21.8512 26.7054C21.7936 27.0887 22.3901 27.2559 22.4477 26.8685C22.5217 26.3588 22.5999 25.8531 22.6739 25.3434C22.7315 24.956 22.135 24.7888 22.0774 25.1803Z" fill="#46A358"/>
<path d="M22.6945 28.1163C22.641 28.626 22.6739 29.1276 22.7727 29.6292C22.8467 30.0165 23.4432 29.8534 23.3692 29.466C23.2828 29.0175 23.2663 28.5689 23.3157 28.1163C23.3486 27.7248 22.7315 27.7289 22.6945 28.1163Z" fill="#46A358"/>
<path d="M23.2005 31.9902C23.2334 32.296 23.2704 32.6018 23.3033 32.9077C23.3198 33.0708 23.4309 33.2135 23.6119 33.2135C23.7641 33.2135 23.941 33.0749 23.9204 32.9077C23.8875 32.6018 23.8505 32.296 23.8176 31.9902C23.8011 31.827 23.69 31.6843 23.509 31.6843C23.3568 31.6843 23.184 31.823 23.2005 31.9902Z" fill="#46A358"/>
<path d="M22.2008 34.2901C22.4394 34.6775 22.6122 35.0852 22.7192 35.5297C22.8138 35.913 23.4062 35.7499 23.3157 35.3666C23.1964 34.8773 22.9989 34.4124 22.7356 33.9802C22.5258 33.6458 21.9952 33.9557 22.2008 34.2901Z" fill="#46A358"/>
<path d="M23.5173 36.8632C23.5872 37.0345 23.653 37.2017 23.7229 37.373C23.7846 37.5238 23.9286 37.6339 24.1014 37.585C24.2495 37.5442 24.3811 37.3648 24.3153 37.2099C24.2454 37.0386 24.1796 36.8714 24.1096 36.7001C24.0479 36.5492 23.9039 36.4391 23.7312 36.4881C23.5872 36.5248 23.4555 36.7083 23.5173 36.8632Z" fill="#46A358"/>
</g>
</g>
<defs>
<filter id="filter0_d_5_1645" x="0" y="0" width="76" height="95" filterUnits="userSpaceOnUse" color-interpolation-filters="sRGB">
<feFlood flood-opacity="0" result="BackgroundImageFix"/>
<feColorMatrix in="SourceAlpha" type="matrix" values="0 0 0 0 0 0 0 0 0 0 0 0 0 0 0 0 0 0 127 0" result="hardAlpha"/>
<feOffset dy="4"/>
<feGaussianBlur stdDeviation="2"/>
<feComposite in2="hardAlpha" operator="out"/>
<feColorMatrix type="matrix" values="0 0 0 0 0 0 0 0 0 0 0 0 0 0 0 0 0 0 0.25 0"/>
<feBlend mode="normal" in2="BackgroundImageFix" result="effect1_dropShadow_5_1645"/>
<feBlend mode="normal" in="SourceGraphic" in2="effect1_dropShadow_5_1645" result="shape"/>
</filter>
<clipPath id="clip0_5_1645">
<rect width="68" height="49" fill="white" transform="translate(4 38)"/>
</clipPath>
<clipPath id="clip1_5_1645">
<rect width="35" height="39" fill="white" transform="translate(20)"/>
</clipPath>
</defs>
</svg>
