<svg width="194" height="20" viewBox="0 0 194 20" fill="none" xmlns="http://www.w3.org/2000/svg">
<path d="M23.0615 11.05C23.0015 13.885 25.4465 16.21 28.2665 16.165C30.1115 16.165 31.6715 15.28 32.5115 13.885L31.3115 13C30.6065 14.095 29.5865 14.71 28.2815 14.71C26.2565 14.71 24.7115 13.15 24.7115 11.05C24.7115 8.95 26.2565 7.39 28.2815 7.39C29.5865 7.39 30.6065 8.005 31.3115 9.1L32.5115 8.215C31.6565 6.82 30.0815 5.935 28.2665 5.935C25.4465 5.89 23.0015 8.215 23.0615 11.05ZM33.697 12.31C33.652 14.395 35.467 16.21 37.582 16.165C39.727 16.21 41.542 14.395 41.497 12.31C41.542 10.225 39.727 8.425 37.582 8.47C35.467 8.44 33.652 10.195 33.697 12.31ZM39.877 12.325C39.877 13.66 38.887 14.71 37.582 14.71C36.292 14.71 35.302 13.69 35.302 12.325C35.302 10.96 36.292 9.91 37.597 9.91C38.872 9.91 39.877 10.96 39.877 12.325ZM49.7376 11.395C49.7376 9.64 48.7026 8.47 46.9776 8.47C46.0626 8.47 45.3276 8.77 44.7726 9.355V8.635H43.3026V16H44.8776V11.605C44.8776 10.6 45.5826 9.895 46.5576 9.895C47.5176 9.895 48.1626 10.585 48.1626 11.605V16H49.7376V11.395ZM56.3105 14.665C55.8755 14.71 55.5605 14.74 55.3355 14.74C54.3755 14.74 53.8805 14.41 53.8805 13.465V10H56.0705V8.635H53.8805V6.7H52.2905V8.635H51.0905V10H52.2905V13.6C52.2905 15.325 53.3105 16.165 55.0055 16.165C55.3805 16.165 55.8155 16.105 56.3105 16V14.665ZM57.9071 16H59.4821V8.635H57.9071V16ZM57.6221 5.89C57.6221 6.475 58.1021 6.925 58.7021 6.925C59.2871 6.925 59.7671 6.475 59.7671 5.89C59.7671 5.305 59.2871 4.84 58.7021 4.84C58.1021 4.84 57.6221 5.305 57.6221 5.89ZM68.1946 11.395C68.1946 9.64 67.1596 8.47 65.4346 8.47C64.5196 8.47 63.7846 8.77 63.2296 9.355V8.635H61.7596V16H63.3346V11.605C63.3346 10.6 64.0396 9.895 65.0146 9.895C65.9746 9.895 66.6196 10.585 66.6196 11.605V16H68.1946V11.395ZM70.3126 12.91C70.3126 14.89 71.6926 16.165 73.5376 16.165C75.3376 16.165 76.7326 14.89 76.7326 12.91V8.635H75.1576V13.03C75.1576 14.05 74.4526 14.71 73.5376 14.71C72.5776 14.71 71.8726 14.05 71.8726 13.03V8.635H70.3126V12.91ZM85.5722 12.835C85.6472 12.49 85.6922 12.16 85.6922 11.845C85.6922 9.925 84.2372 8.47 82.2872 8.47C80.2022 8.425 78.4322 10.21 78.4772 12.325C78.4772 14.5 80.1872 16.165 82.4372 16.165C83.5622 16.165 84.5372 15.775 85.3772 14.98L84.6272 13.9C83.9672 14.485 83.2472 14.77 82.4822 14.77C81.2222 14.77 80.2772 14.035 80.0822 12.835H85.5722ZM80.1122 11.605C80.3522 10.51 81.1922 9.805 82.2272 9.805C83.2622 9.805 84.1022 10.48 84.1172 11.605H80.1122ZM100.952 8.635L99.0469 13.39L96.7819 8.47H96.2419L94.0069 13.45L92.0719 8.635H90.3919L93.6619 16.165H94.2019L96.5119 11.26L98.8219 16.165H99.3619L102.632 8.635H100.952ZM104.05 16H105.625V8.635H104.05V16ZM103.765 5.89C103.765 6.475 104.245 6.925 104.845 6.925C105.43 6.925 105.91 6.475 105.91 5.89C105.91 5.305 105.43 4.84 104.845 4.84C104.245 4.84 103.765 5.305 103.765 5.89ZM112.282 14.665C111.847 14.71 111.532 14.74 111.307 14.74C110.347 14.74 109.852 14.41 109.852 13.465V10H112.042V8.635H109.852V6.7H108.262V8.635H107.062V10H108.262V13.6C108.262 15.325 109.282 16.165 110.977 16.165C111.352 16.165 111.787 16.105 112.282 16V14.665ZM120.314 11.395C120.314 9.655 119.264 8.47 117.584 8.47C116.699 8.47 115.949 8.785 115.454 9.37V4.75H113.879V16H115.454V11.62C115.454 10.615 116.159 9.91 117.134 9.91C118.109 9.91 118.739 10.6 118.739 11.62V16H120.314V11.395ZM126.816 16H128.406V11.92H132.336V10.48H128.406V7.525H133.176V6.1H126.816V16ZM140.105 11.545C140.105 9.565 138.905 8.47 137.09 8.47C135.815 8.47 134.72 8.98 133.985 10.045L134.9 10.975C135.515 10.24 136.115 9.88 136.94 9.88C137.945 9.88 138.515 10.435 138.515 11.455V11.935H136.43C134.765 11.935 133.715 12.76 133.715 14.035C133.715 15.31 134.735 16.165 136.28 16.165C137.285 16.165 138.095 15.82 138.635 15.175V16H140.105V11.545ZM138.515 13.21C138.515 14.215 137.675 14.95 136.61 14.95C135.845 14.95 135.32 14.59 135.32 13.975C135.32 13.375 135.785 13.075 136.625 13.075H138.515V13.21ZM141.832 12.31C141.832 14.455 143.557 16.165 145.732 16.165C147.067 16.165 148.177 15.52 148.837 14.455L147.727 13.6C147.187 14.335 146.527 14.71 145.747 14.71C144.427 14.71 143.437 13.66 143.437 12.31C143.437 10.975 144.427 9.925 145.747 9.925C146.542 9.925 147.202 10.3 147.727 11.05L148.837 10.18C148.192 9.115 147.097 8.47 145.732 8.47C143.617 8.44 141.787 10.195 141.832 12.31ZM157.057 12.835C157.132 12.49 157.177 12.16 157.177 11.845C157.177 9.925 155.722 8.47 153.772 8.47C151.687 8.425 149.917 10.21 149.962 12.325C149.962 14.5 151.672 16.165 153.922 16.165C155.047 16.165 156.022 15.775 156.862 14.98L156.112 13.9C155.452 14.485 154.732 14.77 153.967 14.77C152.707 14.77 151.762 14.035 151.567 12.835H157.057ZM151.597 11.605C151.837 10.51 152.677 9.805 153.712 9.805C154.747 9.805 155.587 10.48 155.602 11.605H151.597ZM166.631 12.325C166.631 10.135 165.101 8.47 163.016 8.47C161.996 8.47 161.111 8.86 160.556 9.535V4.75H158.981V16H160.451V14.98C161.006 15.745 161.951 16.165 163.031 16.165C165.086 16.165 166.631 14.5 166.631 12.325ZM165.011 12.31C165.011 13.72 164.036 14.725 162.761 14.725C161.606 14.725 160.541 13.93 160.541 12.325C160.541 10.705 161.606 9.91 162.761 9.91C164.021 9.91 165.011 10.9 165.011 12.31ZM167.979 12.31C167.934 14.395 169.749 16.21 171.864 16.165C174.009 16.21 175.824 14.395 175.779 12.31C175.824 10.225 174.009 8.425 171.864 8.47C169.749 8.44 167.934 10.195 167.979 12.31ZM174.159 12.325C174.159 13.66 173.169 14.71 171.864 14.71C170.574 14.71 169.584 13.69 169.584 12.325C169.584 10.96 170.574 9.91 171.879 9.91C173.154 9.91 174.159 10.96 174.159 12.325ZM177.12 12.31C177.075 14.395 178.89 16.21 181.005 16.165C183.15 16.21 184.965 14.395 184.92 12.31C184.965 10.225 183.15 8.425 181.005 8.47C178.89 8.44 177.075 10.195 177.12 12.31ZM183.3 12.325C183.3 13.66 182.31 14.71 181.005 14.71C179.715 14.71 178.725 13.69 178.725 12.325C178.725 10.96 179.715 9.91 181.02 9.91C182.295 9.91 183.3 10.96 183.3 12.325ZM186.725 16H188.3V4.75H186.725V16ZM190.205 11.875L193.175 8.635H191.225L188.345 11.86L191.54 16H193.43L190.205 11.875Z" fill="white"/>
<g clip-path="url(#clip0_16_1309)">
<path d="M13.3313 3.32083H15.1571V0.140833C14.8421 0.0975 13.7588 0 12.4971 0C6.72042 0 8.29208 6.54167 8.06208 7.5H5.15625V11.055H8.06125V20H11.6229V11.0558H14.4104L14.8529 7.50083H11.6221C11.7788 5.1475 10.9879 3.32083 13.3313 3.32083Z" fill="white"/>
</g>
<defs>
<clipPath id="clip0_16_1309">
<rect width="20" height="20" fill="white"/>
</clipPath>
</defs>
</svg>
