<svg width="181" height="20" viewBox="0 0 181 20" fill="none" xmlns="http://www.w3.org/2000/svg">
<path d="M26.8745 10.05C26.8145 12.885 29.2595 15.21 32.0795 15.165C33.9245 15.165 35.4845 14.28 36.3245 12.885L35.1245 12C34.4195 13.095 33.3995 13.71 32.0945 13.71C30.0695 13.71 28.5245 12.15 28.5245 10.05C28.5245 7.95 30.0695 6.39 32.0945 6.39C33.3995 6.39 34.4195 7.005 35.1245 8.1L36.3245 7.215C35.4695 5.82 33.8945 4.935 32.0795 4.935C29.2595 4.89 26.8145 7.215 26.8745 10.05ZM37.51 11.31C37.465 13.395 39.28 15.21 41.395 15.165C43.54 15.21 45.355 13.395 45.31 11.31C45.355 9.225 43.54 7.425 41.395 7.47C39.28 7.44 37.465 9.195 37.51 11.31ZM43.69 11.325C43.69 12.66 42.7 13.71 41.395 13.71C40.105 13.71 39.115 12.69 39.115 11.325C39.115 9.96 40.105 8.91 41.41 8.91C42.685 8.91 43.69 9.96 43.69 11.325ZM53.5506 10.395C53.5506 8.64 52.5156 7.47 50.7906 7.47C49.8756 7.47 49.1406 7.77 48.5856 8.355V7.635H47.1156V15H48.6906V10.605C48.6906 9.6 49.3956 8.895 50.3706 8.895C51.3306 8.895 51.9756 9.585 51.9756 10.605V15H53.5506V10.395ZM60.1235 13.665C59.6885 13.71 59.3735 13.74 59.1485 13.74C58.1885 13.74 57.6935 13.41 57.6935 12.465V9H59.8835V7.635H57.6935V5.7H56.1035V7.635H54.9035V9H56.1035V12.6C56.1035 14.325 57.1235 15.165 58.8185 15.165C59.1935 15.165 59.6285 15.105 60.1235 15V13.665ZM61.7201 15H63.2951V7.635H61.7201V15ZM61.4351 4.89C61.4351 5.475 61.9151 5.925 62.5151 5.925C63.1001 5.925 63.5801 5.475 63.5801 4.89C63.5801 4.305 63.1001 3.84 62.5151 3.84C61.9151 3.84 61.4351 4.305 61.4351 4.89ZM72.0076 10.395C72.0076 8.64 70.9726 7.47 69.2476 7.47C68.3326 7.47 67.5976 7.77 67.0426 8.355V7.635H65.5726V15H67.1476V10.605C67.1476 9.6 67.8526 8.895 68.8276 8.895C69.7876 8.895 70.4326 9.585 70.4326 10.605V15H72.0076V10.395ZM74.1255 11.91C74.1255 13.89 75.5055 15.165 77.3505 15.165C79.1505 15.165 80.5455 13.89 80.5455 11.91V7.635H78.9705V12.03C78.9705 13.05 78.2655 13.71 77.3505 13.71C76.3905 13.71 75.6855 13.05 75.6855 12.03V7.635H74.1255V11.91ZM89.3852 11.835C89.4602 11.49 89.5052 11.16 89.5052 10.845C89.5052 8.925 88.0502 7.47 86.1002 7.47C84.0152 7.425 82.2452 9.21 82.2902 11.325C82.2902 13.5 84.0002 15.165 86.2502 15.165C87.3752 15.165 88.3502 14.775 89.1902 13.98L88.4402 12.9C87.7802 13.485 87.0602 13.77 86.2952 13.77C85.0352 13.77 84.0902 13.035 83.8952 11.835H89.3852ZM83.9252 10.605C84.1652 9.51 85.0052 8.805 86.0402 8.805C87.0752 8.805 87.9152 9.48 87.9302 10.605H83.9252ZM104.765 7.635L102.86 12.39L100.595 7.47H100.055L97.8199 12.45L95.8849 7.635H94.2049L97.4749 15.165H98.0149L100.325 10.26L102.635 15.165H103.175L106.445 7.635H104.765ZM107.863 15H109.438V7.635H107.863V15ZM107.578 4.89C107.578 5.475 108.058 5.925 108.658 5.925C109.243 5.925 109.723 5.475 109.723 4.89C109.723 4.305 109.243 3.84 108.658 3.84C108.058 3.84 107.578 4.305 107.578 4.89ZM116.095 13.665C115.66 13.71 115.345 13.74 115.12 13.74C114.16 13.74 113.665 13.41 113.665 12.465V9H115.855V7.635H113.665V5.7H112.075V7.635H110.875V9H112.075V12.6C112.075 14.325 113.095 15.165 114.79 15.165C115.165 15.165 115.6 15.105 116.095 15V13.665ZM124.127 10.395C124.127 8.655 123.077 7.47 121.397 7.47C120.512 7.47 119.762 7.785 119.267 8.37V3.75H117.692V15H119.267V10.62C119.267 9.615 119.972 8.91 120.947 8.91C121.922 8.91 122.552 9.6 122.552 10.62V15H124.127V10.395ZM130.029 10.05C129.984 12.885 132.354 15.21 135.249 15.165C137.244 15.165 138.984 14.13 139.869 12.555V9.765H135.234V11.175H138.279V12.24C137.664 13.185 136.629 13.74 135.324 13.74C133.194 13.74 131.679 12.15 131.679 10.035C131.679 7.95 133.149 6.39 135.234 6.39C136.464 6.39 137.454 6.915 138.189 7.95L139.344 7.005C138.399 5.685 136.974 4.935 135.249 4.935C132.384 4.89 129.969 7.215 130.029 10.05ZM141.25 11.31C141.205 13.395 143.02 15.21 145.135 15.165C147.28 15.21 149.095 13.395 149.05 11.31C149.095 9.225 147.28 7.425 145.135 7.47C143.02 7.44 141.205 9.195 141.25 11.31ZM147.43 11.325C147.43 12.66 146.44 13.71 145.135 13.71C143.845 13.71 142.855 12.69 142.855 11.325C142.855 9.96 143.845 8.91 145.15 8.91C146.425 8.91 147.43 9.96 147.43 11.325ZM150.391 11.31C150.346 13.395 152.161 15.21 154.276 15.165C156.421 15.21 158.236 13.395 158.191 11.31C158.236 9.225 156.421 7.425 154.276 7.47C152.161 7.44 150.346 9.195 150.391 11.31ZM156.571 11.325C156.571 12.66 155.581 13.71 154.276 13.71C152.986 13.71 151.996 12.69 151.996 11.325C151.996 9.96 152.986 8.91 154.291 8.91C155.566 8.91 156.571 9.96 156.571 11.325ZM165.771 7.635V8.685C165.231 7.92 164.286 7.47 163.161 7.47C161.121 7.47 159.576 9.015 159.576 11.16C159.576 13.305 161.106 14.85 163.161 14.85C164.181 14.85 165.096 14.475 165.651 13.8V14.325C165.651 15.705 164.781 16.425 163.446 16.425C162.441 16.425 161.691 16.035 160.866 15.375L159.996 16.47C160.881 17.295 162.081 17.865 163.536 17.865C165.771 17.865 167.226 16.56 167.226 14.235V7.635H165.771ZM165.666 11.145C165.666 11.895 165.441 12.465 165.006 12.87C164.571 13.275 164.061 13.47 163.446 13.47C162.801 13.47 162.276 13.26 161.841 12.84C161.406 12.405 161.196 11.85 161.196 11.16C161.196 10.485 161.406 9.93 161.841 9.51C162.276 9.09 162.801 8.88 163.446 8.88C164.661 8.88 165.666 9.645 165.666 11.145ZM169.503 15H171.078V3.75H169.503V15ZM179.986 11.835C180.061 11.49 180.106 11.16 180.106 10.845C180.106 8.925 178.651 7.47 176.701 7.47C174.616 7.425 172.846 9.21 172.891 11.325C172.891 13.5 174.601 15.165 176.851 15.165C177.976 15.165 178.951 14.775 179.791 13.98L179.041 12.9C178.381 13.485 177.661 13.77 176.896 13.77C175.636 13.77 174.691 13.035 174.496 11.835H179.986ZM174.526 10.605C174.766 9.51 175.606 8.805 176.641 8.805C177.676 8.805 178.516 9.48 178.531 10.605H174.526Z" fill="white"/>
<g clip-path="url(#clip0_16_1310)">
<path d="M16.4336 17.6055C14.6992 19.0703 12.4493 20 10 20C6.35547 20 3.15621 17.9922 1.42188 15.0625L2.07117 12.0695L4.94922 11.5352C5.61719 13.6914 7.63278 15.2734 10 15.2734C11.1484 15.2734 12.2148 14.9102 13.0938 14.2656L15.8594 14.6875L16.4336 17.6055Z" fill="white"/>
<path d="M16.4336 17.6055L15.8594 14.6875L13.0937 14.2656C12.2148 14.9102 11.1484 15.2735 10 15.2735V20C12.4493 20 14.6992 19.0703 16.4336 17.6055Z" fill="white"/>
<path d="M4.72656 10C4.72656 10.539 4.8086 11.0546 4.94922 11.5352L1.42188 15.0625C0.542969 13.5859 0 11.8515 0 10C0 8.1484 0.542969 6.41406 1.42188 4.9375L4.25285 5.42473L4.94922 8.46484C4.8086 8.94527 4.72656 9.4609 4.72656 10Z" fill="white"/>
<path d="M20 10C20 13.0468 18.5899 15.7773 16.4336 17.6055L13.0938 14.2656C13.7734 13.7734 14.3477 13.1171 14.7227 12.3437H10C9.67184 12.3437 9.41406 12.0859 9.41406 11.7578V8.24219C9.41406 7.91402 9.67184 7.65625 10 7.65625H19.25C19.5312 7.65625 19.7773 7.85543 19.8242 8.13668C19.9414 8.74609 20 9.37887 20 10Z" fill="white"/>
<path d="M14.7227 12.3437C14.3477 13.1171 13.7734 13.7734 13.0938 14.2656L16.4336 17.6055C18.5899 15.7773 20 13.0469 20 10C20 9.37887 19.9414 8.74609 19.8242 8.13668C19.7773 7.85543 19.5312 7.65625 19.25 7.65625H10V12.3437H14.7227Z" fill="white"/>
<path d="M16.5977 2.79293C16.6094 2.95699 16.5391 3.10937 16.4336 3.22652L13.9258 5.72262C13.7266 5.93355 13.3985 5.95699 13.1641 5.78121C12.2382 5.08984 11.1484 4.72656 10 4.72656C7.63278 4.72656 5.61719 6.30855 4.94922 8.46484L1.42188 4.9375C3.15621 2.00781 6.35547 0 10 0C12.332 0 14.6055 0.859375 16.3867 2.35934C16.5156 2.46484 16.5859 2.62887 16.5977 2.79293Z" fill="white"/>
<path d="M13.1641 5.78121C13.3984 5.95703 13.7265 5.93355 13.9257 5.72262L16.4336 3.22652C16.5391 3.10938 16.6094 2.95703 16.5976 2.79293C16.5859 2.62883 16.5156 2.46484 16.3867 2.35934C14.6055 0.859375 12.332 0 10 0V4.72656C11.1484 4.72656 12.2382 5.08984 13.1641 5.78121Z" fill="white"/>
</g>
<defs>
<clipPath id="clip0_16_1310">
<rect width="20" height="20" fill="white"/>
</clipPath>
</defs>
</svg>
